<?xml version="1.0" encoding="utf-8"?>
<!-- Generator: Adobe Illustrator 21.0.2, SVG Export Plug-In . SVG Version: 6.00 Build 0)  -->
<svg version="1.1" id="Layer_1" xmlns="http://www.w3.org/2000/svg" xmlns:xlink="http://www.w3.org/1999/xlink" x="0px" y="0px"
	 viewBox="0 0 100 125" style="enable-background:new 0 0 100 125;" xml:space="preserve">
<style type="text/css">
	.st0{display:none;}
	.st1{display:inline;}
</style>
<g class="st0">
	<rect x="-16.2" y="-136.3" class="st1" width="1206.4" height="1215.2"/>
</g>
<g>
	<polygon points="50.7,48.7 49.3,48.7 46.7,53.2 53.3,53.2 	"/>
	<path d="M49.3,62v32c0,0.6,0.5,1,1,1s1-0.5,1-1V62c0-0.6-0.5-1-1-1S49.3,61.5,49.3,62z"/>
	<path d="M40.8,72.3v15c0,0.6,0.5,1,1,1s1-0.5,1-1v-15c0-0.6-0.5-1-1-1S40.8,71.7,40.8,72.3z"/>
	<path d="M32.2,73.5v8.6c0,0.6,0.5,1,1,1s1-0.5,1-1v-8.6c0-0.6-0.5-1-1-1S32.2,73,32.2,73.5z"/>
	<path d="M57.6,72.7v15c0,0.6,0.5,1,1,1s1-0.5,1-1v-15c0-0.6-0.5-1-1-1S57.6,72.1,57.6,72.7z"/>
	<path d="M66.2,73.9v8.6c0,0.6,0.5,1,1,1s1-0.5,1-1v-8.6c0-0.6-0.5-1-1-1C66.6,72.9,66.2,73.3,66.2,73.9z"/>
	<path d="M40,59.7c0-0.6-0.5-1-1-1s-1,0.5-1,1c0,4.4-3.6,7.9-7.9,7.9c-3.4,0-6.2-2.8-6.2-6.2c0-2.6,2.1-4.7,4.7-4.7
		c2,0,3.6,1.6,3.6,3.6c0,1.5-1.2,2.7-2.7,2.7c-0.6,0-1,0.5-1,1c0,0.6,0.5,1,1,1c2.6,0,4.7-2.1,4.7-4.7c0-3.1-2.5-5.6-5.6-5.6
		c-3.7,0-6.7,3-6.7,6.7c0,4.5,3.7,8.2,8.2,8.2C35.6,69.7,40,65.2,40,59.7z"/>
	<path d="M78.1,61.5c0-3.7-3-6.7-6.7-6.7c-3.1,0-5.6,2.5-5.6,5.6c0,2.6,2.1,4.7,4.7,4.7c0.6,0,1-0.5,1-1s-0.5-1-1-1
		c-1.5,0-2.7-1.2-2.7-2.7c0-2,1.6-3.6,3.6-3.6c2.6,0,4.7,2.1,4.7,4.7c0,3.4-2.8,6.2-6.2,6.2c-4.4,0-7.9-3.6-7.9-7.9c0-0.6-0.5-1-1-1
		s-1,0.5-1,1c0,5.5,4.5,10,10,10C74.5,69.7,78.1,66,78.1,61.5z"/>
	<path d="M77.3,21.6c0-2.7-2.6-4.7-5.2-3.9c-0.8,0.2-1.7,0.4-2.7,0.4C59.7,18.1,59.7,5,50,5c-9.7,0-9.7,13.1-19.4,13.1
		c-1,0-1.9-0.1-2.7-0.4c-2.6-0.8-5.2,1.2-5.2,3.9v14.9h54.6L77.3,21.6L77.3,21.6z M54.5,25c0.1-0.4,0.2-0.7,0.5-1
		c0.4-0.4,0.8-0.5,1.3-0.5c0.5,0,0.9,0.2,1.3,0.5c0.7,0.7,0.7,1.9,0,2.6c-0.4,0.4-0.8,0.5-1.3,0.5c-0.2,0-0.3,0-0.5-0.1
		c0,0.3-0.1,0.5-0.3,0.7c-0.2,0.2-0.4,0.3-0.7,0.3c0.2,0.6,0,1.3-0.5,1.8c-0.4,0.4-0.8,0.5-1.3,0.5s-0.9-0.2-1.3-0.5
		c-0.7-0.7-0.7-1.9,0-2.6c0.3-0.3,0.7-0.5,1-0.5L50,23.9l-2.8,2.8c0.4,0.1,0.7,0.2,1,0.5c0.7,0.7,0.7,1.9,0,2.6
		c-0.4,0.4-0.8,0.5-1.3,0.5c-0.5,0-0.9-0.2-1.3-0.5c-0.5-0.5-0.6-1.1-0.5-1.8c-0.3,0-0.5-0.1-0.7-0.3c-0.2-0.2-0.3-0.4-0.3-0.7
		c-0.1,0-0.3,0.1-0.5,0.1c-0.5,0-0.9-0.2-1.3-0.5c-0.7-0.7-0.7-1.9,0-2.6c0.4-0.4,0.8-0.5,1.3-0.5s0.9,0.2,1.3,0.5
		c0.3,0.3,0.5,0.7,0.5,1l2.8-2.8l-2.8-2.8c-0.1,0.4-0.2,0.7-0.5,1c-0.4,0.4-0.8,0.5-1.3,0.5s-0.9-0.2-1.3-0.5
		c-0.7-0.7-0.7-1.9,0-2.6c0.4-0.4,0.8-0.5,1.3-0.5c0.2,0,0.3,0,0.5,0.1c0-0.3,0.1-0.5,0.3-0.7c0.2-0.2,0.4-0.3,0.7-0.3
		c-0.2-0.6,0-1.3,0.5-1.8c0.4-0.4,0.8-0.5,1.3-0.5s0.9,0.2,1.3,0.5c0.7,0.7,0.7,1.9,0,2.6c-0.3,0.3-0.7,0.5-1,0.5l2.8,2.8l2.8-2.8
		c-0.4-0.1-0.7-0.2-1-0.5c-0.7-0.7-0.7-1.9,0-2.6c0.4-0.4,0.8-0.5,1.3-0.5c0.5,0,0.9,0.2,1.3,0.5c0.5,0.5,0.6,1.1,0.5,1.8
		c0.3,0,0.5,0.1,0.7,0.3c0.2,0.2,0.3,0.4,0.3,0.7c0.1,0,0.3-0.1,0.5-0.1c0.5,0,0.9,0.2,1.3,0.5c0.7,0.7,0.7,1.9,0,2.6
		c-0.4,0.4-0.8,0.5-1.3,0.5s-0.9-0.2-1.3-0.5c-0.3-0.3-0.5-0.7-0.5-1l-2.8,2.8L54.5,25z"/>
	<path d="M45.1,45.6c0-4.1-3.3-7.5-7.5-7.5s-7.5,3.3-7.5,7.5s3.3,7.5,7.5,7.5S45.1,49.7,45.1,45.6z M37.7,51.1c-3,0-5.4-2.4-5.4-5.4
		s2.4-5.4,5.4-5.4s5.4,2.4,5.4,5.4S40.7,51.1,37.7,51.1z"/>
	<path d="M69.8,45.6c0-4.1-3.3-7.5-7.5-7.5s-7.5,3.3-7.5,7.5s3.3,7.5,7.5,7.5S69.8,49.7,69.8,45.6z M56.9,45.6c0-3,2.4-5.4,5.4-5.4
		s5.4,2.4,5.4,5.4c0,3-2.4,5.4-5.4,5.4S56.9,48.6,56.9,45.6z"/>
</g>
</svg>
