<?xml version="1.0" encoding="utf-8"?>
<!-- Generator: Adobe Illustrator 21.0.2, SVG Export Plug-In . SVG Version: 6.00 Build 0)  -->
<svg version="1.1" id="Layer_1" xmlns="http://www.w3.org/2000/svg" xmlns:xlink="http://www.w3.org/1999/xlink" x="0px" y="0px"
	 viewBox="0 0 58.9 97.1" style="enable-background:new 0 0 58.9 97.1;" xml:space="preserve">
<style type="text/css">
	.st0{display:none;}
	.st1{display:inline;}
	.st2{fill:#FFB42E;}
</style>
<g class="st0">
	<rect x="-37" y="-137.3" class="st1" width="1206.4" height="1215.2"/>
</g>
<g>
	<path class="st2" d="M29.4,97.1c-1.2,0-2.1-0.9-2.1-2.1V61c0-1.2,0.9-2.1,2.1-2.1s2.1,0.9,2.1,2.1v34
		C31.5,96.1,30.6,97.1,29.4,97.1z"/>
	<path class="st2" d="M20.9,90.3c-1.2,0-2.1-0.9-2.1-2.1v-17c0-1.2,0.9-2.1,2.1-2.1c1.2,0,2.1,0.9,2.1,2.1v17
		C23,89.4,22.1,90.3,20.9,90.3z"/>
	<path class="st2" d="M12.4,85.2c-1.2,0-2.1-0.9-2.1-2.1V72.5c0-1.2,0.9-2.1,2.1-2.1s2.1,0.9,2.1,2.1v10.6
		C14.5,84.2,13.6,85.2,12.4,85.2z"/>
	<path class="st2" d="M37.9,90.7c-1.2,0-2.1-0.9-2.1-2.1v-17c0-1.2,0.9-2.1,2.1-2.1c1.2,0,2.1,0.9,2.1,2.1v17
		C40,89.8,39.1,90.7,37.9,90.7z"/>
	<path class="st2" d="M46.4,85.6c-1.2,0-2.1-0.9-2.1-2.1V72.9c0-1.2,0.9-2.1,2.1-2.1s2.1,0.9,2.1,2.1v10.6
		C48.5,84.6,47.6,85.6,46.4,85.6z"/>
	<path class="st2" d="M9.3,68.8c-5.1,0-9.3-4.2-9.3-9.3c0-4.3,3.5-7.8,7.8-7.8c3.7,0,6.9,3,6.7,6.7c-0.2,3-2.7,5-5.7,4.8
		c-1.4-0.1-2.5-1.2-2.5-2.3c0.1-1,1.2-1.9,2.4-1.6c1.1,0.3,1.8-0.3,1.8-1.2c0-1.4-1.4-2.2-2.8-2.2c-2,0-3.6,1.6-3.6,3.6
		c0,2.8,2.3,5.1,5.1,5.1c3.8,0,6.9-3.1,6.9-6.9c0-1.2,0.9-2.1,2.1-2.1c1.2,0,2.1,0.9,2.1,2.1c0,2.9-1.2,5.7-3.2,7.8
		C15,67.6,12.2,68.8,9.3,68.8L9.3,68.8z"/>
	<path class="st2" d="M49.6,68.8c5.1,0,9.3-4.2,9.3-9.3c0-4.3-3.5-7.8-7.8-7.8c-3.7,0-6.9,3-6.7,6.7c0.2,3,2.7,5,5.7,4.8
		c1.4-0.1,2.5-1.2,2.5-2.3c-0.1-1-1.2-1.9-2.4-1.6c-1.1,0.3-1.8-0.3-1.8-1.2c0-1.4,1.4-2.2,2.8-2.2c2,0,3.6,1.6,3.6,3.6
		c0,2.8-2.3,5.1-5.1,5.1c-3.8,0-6.9-3.1-6.9-6.9c0-1.2-0.9-2.1-2.1-2.1c-1.2,0-2.1,0.9-2.1,2.1c0,2.9,1.2,5.7,3.2,7.8
		C43.9,67.6,46.7,68.8,49.6,68.8L49.6,68.8z"/>
	<path class="st2" d="M56.9,16.6c0-2.7-2.6-4.7-5.2-3.9c-0.8,0.2-1.7,0.4-2.7,0.4C39.3,13.1,39.3,0,29.5,0
		c-9.7,0-9.7,13.1-19.4,13.1c-1,0-1.9-0.1-2.7-0.4c-2.6-0.8-5.2,1.2-5.2,3.9v14.9h54.6L56.9,16.6L56.9,16.6z M34.1,20
		c0.1-0.4,0.2-0.7,0.5-1c0.4-0.4,0.8-0.5,1.3-0.5c0.5,0,0.9,0.2,1.3,0.5c0.7,0.7,0.7,1.9,0,2.6c-0.4,0.4-0.8,0.5-1.3,0.5
		c-0.2,0-0.3,0-0.5-0.1c0,0.3-0.1,0.5-0.3,0.7c-0.2,0.2-0.4,0.3-0.7,0.3c0.2,0.6,0,1.3-0.5,1.8c-0.4,0.4-0.8,0.5-1.3,0.5
		s-0.9-0.2-1.3-0.5c-0.7-0.7-0.7-1.9,0-2.6c0.3-0.3,0.7-0.5,1-0.5l-2.8-2.8l-2.8,2.8c0.4,0.1,0.7,0.2,1,0.5c0.7,0.7,0.7,1.9,0,2.6
		c-0.4,0.4-0.8,0.5-1.3,0.5c-0.5,0-0.9-0.2-1.3-0.5c-0.5-0.5-0.6-1.1-0.5-1.8c-0.3,0-0.5-0.1-0.7-0.3c-0.2-0.2-0.3-0.4-0.3-0.7
		c-0.1,0-0.3,0.1-0.5,0.1c-0.5,0-0.9-0.2-1.3-0.5c-0.7-0.7-0.7-1.9,0-2.6c0.4-0.4,0.8-0.5,1.3-0.5s0.9,0.2,1.3,0.5
		c0.3,0.3,0.5,0.7,0.5,1l2.8-2.8L25,14.3c-0.1,0.4-0.2,0.7-0.5,1c-0.4,0.4-0.8,0.5-1.3,0.5s-0.9-0.2-1.3-0.5c-0.7-0.7-0.7-1.9,0-2.6
		c0.4-0.4,0.8-0.5,1.3-0.5c0.2,0,0.3,0,0.5,0.1c0-0.3,0.1-0.5,0.3-0.7c0.2-0.2,0.4-0.3,0.7-0.3c-0.2-0.6,0-1.3,0.5-1.8
		c0.4-0.4,0.8-0.5,1.3-0.5s0.9,0.2,1.3,0.5c0.7,0.7,0.7,1.9,0,2.6c-0.3,0.3-0.7,0.5-1,0.5l2.8,2.8l2.8-2.8c-0.4-0.1-0.7-0.2-1-0.5
		c-0.7-0.7-0.7-1.9,0-2.6c0.4-0.4,0.8-0.5,1.3-0.5c0.5,0,0.9,0.2,1.3,0.5c0.5,0.5,0.6,1.1,0.5,1.8c0.3,0,0.5,0.1,0.7,0.3
		c0.2,0.2,0.3,0.4,0.3,0.7c0.1,0,0.3-0.1,0.5-0.1c0.5,0,0.9,0.2,1.3,0.5c0.7,0.7,0.7,1.9,0,2.6c-0.4,0.4-0.8,0.5-1.3,0.5
		s-0.9-0.2-1.3-0.5c-0.3-0.3-0.5-0.7-0.5-1l-2.8,2.8L34.1,20z"/>
	<path class="st2" d="M16.9,50.2c-4.7,0-8.5-3.8-8.5-8.5s3.8-8.5,8.5-8.5s8.5,3.8,8.5,8.5S21.6,50.2,16.9,50.2z M16.9,37.3
		c-2.4,0-4.4,2-4.4,4.4s2,4.4,4.4,4.4s4.4-2,4.4-4.4S19.3,37.3,16.9,37.3z"/>
	<path class="st2" d="M33.7,41.6c0-4.7,3.8-8.5,8.5-8.5s8.5,3.8,8.5,8.5s-3.8,8.5-8.5,8.5S33.7,46.3,33.7,41.6z M37.8,41.6
		c0,2.4,2,4.4,4.4,4.4s4.4-2,4.4-4.4s-2-4.4-4.4-4.4S37.8,39.2,37.8,41.6z"/>
</g>
<path class="st2" d="M32.8,53.3c0.6,0,1.1-0.5,1.1-1.1c0-0.2-0.1-0.4-0.2-0.6c0,0-3.2-5.7-3.4-5.9c-0.2-0.3-0.5-0.5-0.9-0.5
	s-0.7,0.2-0.9,0.5c-0.1,0.2-2.1,3.7-3.4,5.9c-0.1,0.2-0.2,0.4-0.2,0.6c0,0.6,0.5,1.1,1.1,1.1H32.8z"/>
</svg>
